<svg xmlns="http://www.w3.org/2000/svg" viewBox="0 0 810.71 294.62">
<defs>
<style>
.cls-1{
    fill: #c1c1c1;
}
.cls-2{
    fill: #008cff;
}
.cls-3{
    fill: #008cff;
    animation: vuelo 1s 1.5s both ease-in-out;
}
@keyframes vuelo {
   0% {
        transform: translate(0, 0);
    }
    
    100% {
        transform: translate(-20%, -5%) rotate(-15deg); 
    }
}
</style>
</defs>
<title>Recurso 1</title>
<g id="Capa_2" data-name="Capa 2">
<g id="Capa_1-2" data-name="Capa 1">
<path class="cls-1" d="M90.8,205.47H36.85l-7.76,19H0L49.37,103.38H78.46l49.37,121.13H98.56Zm-9-22-18-44.26-18,44.26Z"/>
<path class="cls-1" d="M205.41,195.77l16.4,16.75c-8.11,8.46-23.8,14.11-37.2,14.11-27.16,0-48.32-19.93-48.32-48,0-27.51,20.28-47.43,46.9-47.43,28.57,0,45.32,21.69,45.32,56.07H162.74c3,9.87,10.93,16.57,21.69,16.57C191.66,203.88,200.47,200.53,205.41,195.77Zm-42.31-27h40.72c-2.46-9-9.16-14.81-19.57-14.81A22,22,0,0,0,163.1,168.79Z"/>
<path class="cls-1" d="M302.91,131.24v21.69c-19,0-31.2,10.93-31.2,28v43.55H246V133.35h25.75v16.93A34,34,0,0,1,302.91,131.24Z"/>
<path class="cls-1" d="M310.5,178.84c0-25.91,22.74-47.6,49.9-47.6,27,0,49.54,21.69,49.54,47.6s-22.57,47.79-49.54,47.79C333.24,226.63,310.5,204.76,310.5,178.84Zm74.93,0c0-14.1-11.46-25.91-25-25.91-13.76,0-25.22,11.81-25.22,25.91s11.46,26.1,25.22,26.1C374,204.94,385.43,193,385.43,178.84Z"/>
<path class="cls-2" d="M571.13,166.5v58.19H546.44V170.91c0-10.58-6.7-18-16.22-18-10.22,0-17.63,6.87-17.63,16.57v55.19H487.91V170.91c0-10.58-6.7-18-16.05-18-10.4,0-17.63,6.87-17.63,16.57v55H428.49V133.36h25.74v12c4.41-8.63,13.4-14.1,24.69-14.1,12.51,0,23.27,6.35,28.91,16.57,4.76-10.05,16.05-16.57,29.62-16.57C556.49,131.24,571.13,145.87,571.13,166.5Z"/>
<path class="cls-2" d="M673.57,170v54.48H648.71v-9.17c-6.52,7.41-16.92,11.29-26.8,11.29-19.39,0-34.38-11.64-34.38-29.1,0-18,16.75-30.32,37.91-30.32a65.72,65.72,0,0,1,23.27,4.58V170c0-9.7-6-18.16-21-18.16-8.46,0-16.4,2.82-23.63,6.52l-8.64-17.1c12.87-6.52,25.39-10,38.09-10C657.35,131.24,673.57,146.23,673.57,170Zm-24.86,25.74v-8.46A57.57,57.57,0,0,0,629.14,184c-9.34,0-16.75,5.46-16.75,12.87s6.52,12,15.34,12C637.6,208.82,647,204.23,648.71,195.77Z"/>
</g>
<g id="Capa_2-2" data-name="Capa 2">
<path class="cls-3" d="M647.46,39.63S635,88.8,634.56,90.73c-.95,4.78.48,6.21,1.91,7.17s5.73,2.86,8.12,2.38,3.35-1.91,5.26-5.25,9.07-19.1,11.46-22.45,7.1-10.73,10-11.46C673.25,60.64,689,75.45,689,75.45s5.25,3.34,4.3,7.64c0,0-1.91,4.3-3.35,7.16s-.74,5.47.48,6.69c1.91,1.91,5.73,2.39,7.64,1s21-21,21-21,3.34-3.82.47-7.64c-1.67-2.23-3.34-3.34-7.16-1.91,0,0-8.18,5.57-10.51,3.82-5.73-4.3-18.62-19.58-18.62-22,0-3.85,12.41-10,14.8-11.94.53-.42,18.67-9.48,22-11.46,2.39-1.43,3.1-3.41,1.43-7.16-1.91-4.3-6.2-6.69-10-6.21-4.83.6-49.66,12.89-49.66,12.89S639.46,5,637,3.33c-2.86-1.91-8.6-5.25-12.42-1.91-3.09,2.71-2.38,6.21-1.43,8.6s4.78,7.64,6.69,10S647.46,39.63,647.46,39.63Z"/>
<path class="cls-2" d="M714.79,109.05c-2-2,12-19.51,14.13-17.56,8.66,8,13.6,15,20.39,23.37,13.34,16.36,28.52,34.48,41.14,57.35,14.16,25.65,25.93,74.31,1.49,122.41,0,0,22.39-51.57-30.13-127.34C732.18,124.53,719.7,113.94,714.79,109.05Z"/>
<path class="cls-2" d="M689.31,220.54c-2.34,1.69-6.44,23.83-4.09,25.51s20.92,2.67,31.53.93c18.7-3.07,25.47-4.18,37.72-11.86,12.65-7.93,29.39-20.08,38.34-37.24,13.55-26,29-73.19,6.52-122.25,0,0,3.63,80.48-39,123.23C725.21,234,691.65,218.85,689.31,220.54Z"/>
</g>
</g>
</svg>